<?xml version="1.0" standalone="no"?>
<!DOCTYPE svg PUBLIC "-//W3C//DTD SVG 20010904//EN"
 "http://www.w3.org/TR/2001/REC-SVG-20010904/DTD/svg10.dtd">
<svg version="1.0" xmlns="http://www.w3.org/2000/svg"
 width="512.000000pt" height="512.000000pt" viewBox="0 0 512.000000 512.000000"
 preserveAspectRatio="xMidYMid meet">
<g transform="translate(0.000000,512.000000) scale(0.100000,-0.100000)"
fill="#FFFFFF" stroke="none">
<path d="M1275 4133 c-46 -24 -76 -54 -96 -98 -18 -38 -19 -100 -19 -1435 0
-1328 1 -1397 19 -1435 21 -46 79 -101 119 -112 15 -5 178 -8 362 -8 l335 0
42 28 c24 15 55 46 70 70 l28 42 0 1410 0 1410 -23 43 c-14 27 -41 54 -69 73
l-47 29 -345 0 c-296 -1 -350 -3 -376 -17z"/>
<path d="M3025 4136 c-38 -16 -102 -87 -112 -123 -5 -16 -8 -656 -8 -1424 l0
-1396 30 -49 c20 -31 47 -58 75 -74 l45 -25 340 0 340 0 42 24 c24 14 55 42
70 64 l28 40 0 1428 0 1427 -31 39 c-17 21 -48 48 -70 60 -38 22 -45 23 -379
22 -258 0 -347 -3 -370 -13z"/>
</g>
</svg>
