<?xml version="1.0" encoding="UTF-8"?>
<svg xmlns="http://www.w3.org/2000/svg" xmlns:xlink="http://www.w3.org/1999/xlink" width="100pt" height="101pt" viewBox="0 0 100 101" version="1.1">
<g id="surface1">
<path style=" stroke:none;fill-rule:nonzero;fill:#FFFFFF;fill-opacity:1;" d="M 16.019531 4.984375 C 15.769531 5.132812 15.488281 5.382812 15.414062 5.527344 C 15.339844 5.675781 15.238281 6.90625 15.175781 8.285156 C 15.03125 12.171875 15.074219 62.082031 15.238281 75.074219 C 15.457031 92.832031 15.679688 95.941406 16.714844 96.265625 C 17.117188 96.394531 18.445312 95.839844 21.671875 94.210938 C 38.492188 85.691406 91.730469 54.972656 95.738281 51.484375 C 96.390625 50.910156 96.421875 50.648438 95.945312 49.636719 C 95.503906 48.683594 95.148438 48.402344 92.335938 46.730469 C 78.640625 38.59375 25.621094 8.828125 18.773438 5.410156 C 17.175781 4.617188 16.730469 4.546875 16.019531 4.984375 Z M 29.554688 26.011719 C 33.03125 27.742188 51.582031 37.304688 59.910156 41.671875 C 63.371094 43.492188 68.578125 46.203125 71.492188 47.730469 L 76.789062 50.46875 L 76.375 50.734375 C 71.980469 53.375 27.054688 76.71875 26.820312 76.496094 C 26.789062 76.453125 26.6875 75.339844 26.582031 74.035156 C 26.390625 71.277344 26.332031 25.71875 26.523438 25.03125 C 26.582031 24.808594 26.671875 24.632812 26.703125 24.632812 C 26.746094 24.632812 28.03125 25.25 29.554688 26.011719 Z M 29.554688 26.011719 "/>
</g>
</svg>
